<svg version="1.1" id="Layer_2" xmlns="http://www.w3.org/2000/svg" xmlns:xlink="http://www.w3.org/1999/xlink" x="0px" y="0px" viewBox="0 0 730 440" enable-background="new 0 0 730 440" xml:space="preserve">
<style>
    .grey circle {fill: #b4b5ba}
    .cities circle {fill: #f2672a;}
    .cities circle:hover {
        fill: #fff;
        stroke: #f2672a;
        stroke-width: 4px;
        cursor: pointer
    }
</style>
<script>
    function citySelect (name) { $('.'+name).addClass('active'); }
    function cityUnSelect(name) { $('.'+name).removeClass('active');  }
</script>
<g class="grey">
    <circle cx="342.6" cy="422" r="3" />
    <circle cx="608.7" cy="407.3" r="3" />
    <circle cx="342.6" cy="407.3" r="3" />
    <circle cx="327.9" cy="407.3" r="3" />
    <circle cx="608.7" cy="392.5" r="3" />
    <circle cx="593.9" cy="392.5" r="3" />
    <circle cx="357.4" cy="392.5" r="3" />
    <circle cx="342.6" cy="392.5" r="3" />
    <circle cx="327.9" cy="392.5" r="3" />
    <circle cx="593.9" cy="377.7" r="3" />
    <circle cx="357.4" cy="377.7" r="3" />
    <circle cx="342.6" cy="377.7" r="3" />
    <circle cx="327.9" cy="377.7" r="3" />
    <circle cx="593.9" cy="362.9" r="3" />
    <circle cx="579.1" cy="362.9" r="3" />
    <circle cx="446.1" cy="362.9" r="3" />
    <circle cx="431.3" cy="362.9" r="3" />
    <circle cx="416.5" cy="362.9" r="3" />
    <circle cx="401.8" cy="362.9" r="3" />
    <circle cx="387" cy="362.9" r="3" />
    <circle cx="372.2" cy="362.9" r="3" />
    <circle cx="357.4" cy="362.9" r="3" />
    <circle cx="342.6" cy="362.9" r="3" />
    <circle cx="327.9" cy="362.9" r="3" />
    <circle cx="313.1" cy="362.9" r="3" />
    <circle cx="298.3" cy="362.9" r="3" />
    <circle cx="283.5" cy="362.9" r="3" />
    <circle cx="268.7" cy="362.9" r="3" />
    <circle cx="579.1" cy="348.1" r="3" />
    <circle cx="564.3" cy="348.1" r="3" />
    <circle cx="549.6" cy="348.1" r="3" />
    <circle cx="534.8" cy="348.1" r="3" />
    <circle cx="475.7" cy="348.1" r="3" />
    <circle cx="460.9" cy="348.1" r="3" />
    <circle cx="446.1" cy="348.1" r="3" />
    <circle cx="431.3" cy="348.1" r="3" />
    <circle cx="416.5" cy="348.1" r="3" />
    <circle cx="401.8" cy="348.1" r="3" />
    <circle cx="387" cy="348.1" r="3" />
    <circle cx="372.2" cy="348.1" r="3" />
    <circle cx="357.4" cy="348.1" r="3" />
    <circle cx="342.6" cy="348.1" r="3" />
    <circle cx="327.9" cy="348.1" r="3" />
    <circle cx="313.1" cy="348.1" r="3" />
    <circle cx="298.3" cy="348.1" r="3" />
    <circle cx="283.5" cy="348.1" r="3" />
    <circle cx="268.7" cy="348.1" r="3" />
    <circle cx="254" cy="348.1" r="3" />
    <circle cx="579.1" cy="333.4" r="3" />
    <circle cx="564.3" cy="333.4" r="3" />
    <circle cx="549.6" cy="333.4" r="3" />
    <circle cx="534.8" cy="333.4" r="3" />
    <circle cx="520" cy="333.4" r="3" />
    <circle cx="505.2" cy="333.4" r="3" />
    <circle cx="490.4" cy="333.4" r="3" />
    <circle cx="475.7" cy="333.4" r="3" />
    <circle cx="460.9" cy="333.4" r="3" />
    <circle cx="446.1" cy="333.4" r="3" />
    <circle cx="431.3" cy="333.4" r="3" />
    <circle cx="416.5" cy="333.4" r="3" />
    <circle cx="401.8" cy="333.4" r="3" />
    <circle cx="387" cy="333.4" r="3" />
    <circle cx="372.2" cy="333.4" r="3" />
    <circle cx="357.4" cy="333.4" r="3" />
    <circle cx="342.6" cy="333.4" r="3" />
    <circle cx="327.9" cy="333.4" r="3" />
    <circle cx="313.1" cy="333.4" r="3" />
    <circle cx="298.3" cy="333.4" r="3" />
    <circle cx="283.5" cy="333.4" r="3" />
    <circle cx="268.7" cy="333.4" r="3" />
    <circle cx="254" cy="333.4" r="3" />
    <circle cx="239.2" cy="333.4" r="3" />
    <circle cx="579.1" cy="318.6" r="3" />
    <circle cx="564.3" cy="318.6" r="3" />
    <circle cx="549.6" cy="318.6" r="3" />
    <circle cx="534.8" cy="318.6" r="3" />
    <circle cx="520" cy="318.6" r="3" />
    <circle cx="505.2" cy="318.6" r="3" />
    <circle cx="490.4" cy="318.6" r="3" />
    <circle cx="475.7" cy="318.6" r="3" />
    <circle cx="460.9" cy="318.6" r="3" />
    <circle cx="446.1" cy="318.6" r="3" />
    <circle cx="431.3" cy="318.6" r="3" />
    <circle cx="416.5" cy="318.6" r="3" />
    <circle cx="401.8" cy="318.6" r="3" />
    <circle cx="387" cy="318.6" r="3" />
    <circle cx="372.2" cy="318.6" r="3" />
    <circle cx="357.4" cy="318.6" r="3" />
    <circle cx="342.6" cy="318.6" r="3" />
    <circle cx="327.9" cy="318.6" r="3" />
    <circle cx="313.1" cy="318.6" r="3" />
    <circle cx="298.3" cy="318.6" r="3" />
    <circle cx="283.5" cy="318.6" r="3" />
    <circle cx="268.7" cy="318.6" r="3" />
    <circle cx="254" cy="318.6" r="3" />
    <circle cx="239.2" cy="318.6" r="3" />
    <circle cx="224.4" cy="318.6" r="3" />
    <circle cx="180.1" cy="318.6" r="3" />
    <circle cx="165.3" cy="318.6" r="3" />
    <circle cx="150.5" cy="318.6" r="3" />
    <circle cx="593.9" cy="303.8" r="3" />
    <circle cx="579.1" cy="303.8" r="3" />
    <circle cx="564.3" cy="303.8" r="3" />
    <circle cx="549.6" cy="303.8" r="3" />
    <circle cx="534.8" cy="303.8" r="3" />
    <circle cx="520" cy="303.8" r="3" />
    <circle cx="505.2" cy="303.8" r="3" />
    <circle cx="490.4" cy="303.8" r="3" />
    <circle cx="475.7" cy="303.8" r="3" />
    <circle cx="460.9" cy="303.8" r="3" />
    <circle cx="446.1" cy="303.8" r="3" />
    <circle cx="431.3" cy="303.8" r="3" />
    <circle cx="416.5" cy="303.8" r="3" />
    <circle cx="401.8" cy="303.8" r="3" />
    <circle cx="387" cy="303.8" r="3" />
    <circle cx="372.2" cy="303.8" r="3" />
    <circle cx="357.4" cy="303.8" r="3" />
    <circle cx="342.6" cy="303.8" r="3" />
    <circle cx="327.9" cy="303.8" r="3" />
    <circle cx="313.1" cy="303.8" r="3" />
    <circle cx="298.3" cy="303.8" r="3" />
    <circle cx="283.5" cy="303.8" r="3" />
    <circle cx="268.7" cy="303.8" r="3" />
    <circle cx="254" cy="303.8" r="3" />
    <circle cx="239.2" cy="303.8" r="3" />
    <circle cx="224.4" cy="303.8" r="3" />
    <circle cx="209.6" cy="303.8" r="3" />
    <circle cx="194.8" cy="303.8" r="3" />
    <circle cx="180.1" cy="303.8" r="3" />
    <circle cx="165.3" cy="303.8" r="3" />
    <circle cx="150.5" cy="303.8" r="3" />
    <circle cx="135.7" cy="303.8" r="3" />
    <circle cx="608.7" cy="289" r="3" />
    <circle cx="593.9" cy="289" r="3" />
    <circle cx="579.1" cy="289" r="3" />
    <circle cx="564.3" cy="289" r="3" />
    <circle cx="549.6" cy="289" r="3" />
    <circle cx="534.8" cy="289" r="3" />
    <circle cx="520" cy="289" r="3" />
    <circle cx="505.2" cy="289" r="3" />
    <circle cx="490.4" cy="289" r="3" />
    <circle cx="475.7" cy="289" r="3" />
    <circle cx="460.9" cy="289" r="3" />
    <circle cx="446.1" cy="289" r="3" />
    <circle cx="431.3" cy="289" r="3" />
    <circle cx="416.5" cy="289" r="3" />
    <circle cx="401.8" cy="289" r="3" />
    <circle cx="387" cy="289" r="3" />
    <circle cx="372.2" cy="289" r="3" />
    <circle cx="357.4" cy="289" r="3" />
    <circle cx="342.6" cy="289" r="3" />
    <circle cx="327.9" cy="289" r="3" />
    <circle cx="313.1" cy="289" r="3" />
    <circle cx="298.3" cy="289" r="3" />
    <circle cx="283.5" cy="289" r="3" />
    <circle cx="268.7" cy="289" r="3" />
    <circle cx="254" cy="289" r="3" />
    <circle cx="239.2" cy="289" r="3" />
    <circle cx="224.4" cy="289" r="3" />
    <circle cx="209.6" cy="289" r="3" />
    <circle cx="194.8" cy="289" r="3" />
    <circle cx="180.1" cy="289" r="3" />
    <circle cx="165.3" cy="289" r="3" />
    <circle cx="150.5" cy="289" r="3" />
    <circle cx="135.7" cy="289" r="3" />
    <circle cx="120.9" cy="289" r="3" />
    <circle cx="106.2" cy="289" r="3" />
    <circle cx="91.4" cy="289" r="3" />
    <circle cx="623.5" cy="274.2" r="3" />
    <circle cx="608.7" cy="274.2" r="3" />
    <circle cx="593.9" cy="274.2" r="3" />
    <circle cx="579.1" cy="274.2" r="3" />
    <circle cx="564.3" cy="274.2" r="3" />
    <circle cx="549.6" cy="274.2" r="3" />
    <circle cx="534.8" cy="274.2" r="3" />
    <circle cx="520" cy="274.2" r="3" />
    <circle cx="505.2" cy="274.2" r="3" />
    <circle cx="490.4" cy="274.2" r="3" />
    <circle cx="475.7" cy="274.2" r="3" />
    <circle cx="460.9" cy="274.2" r="3" />
    <circle cx="446.1" cy="274.2" r="3" />
    <circle cx="431.3" cy="274.2" r="3" />
    <circle cx="416.5" cy="274.2" r="3" />
    <circle cx="401.8" cy="274.2" r="3" />
    <circle cx="387" cy="274.2" r="3" />
    <circle cx="372.2" cy="274.2" r="3" />
    <circle cx="357.4" cy="274.2" r="3" />
    <circle cx="342.6" cy="274.2" r="3" />
    <circle cx="327.9" cy="274.2" r="3" />
    <circle cx="313.1" cy="274.2" r="3" />
    <circle cx="298.3" cy="274.2" r="3" />
    <circle cx="283.5" cy="274.2" r="3" />
    <circle cx="268.7" cy="274.2" r="3" />
    <circle cx="254" cy="274.2" r="3" />
    <circle cx="239.2" cy="274.2" r="3" />
    <circle cx="224.4" cy="274.2" r="3" />
    <circle cx="209.6" cy="274.2" r="3" />
    <circle cx="194.8" cy="274.2" r="3" />
    <circle cx="180.1" cy="274.2" r="3" />
    <circle cx="165.3" cy="274.2" r="3" />
    <circle cx="150.5" cy="274.2" r="3" />
    <circle cx="135.7" cy="274.2" r="3" />
    <circle cx="120.9" cy="274.2" r="3" />
    <circle cx="106.2" cy="274.2" r="3" />
    <circle cx="91.4" cy="274.2" r="3" />
    <circle cx="76.6" cy="274.2" r="3" />
    <circle cx="638.3" cy="259.5" r="3" />
    <circle cx="623.5" cy="259.5" r="3" />
    <circle cx="608.7" cy="259.5" r="3" />
    <circle cx="593.9" cy="259.5" r="3" />
    <circle cx="579.1" cy="259.5" r="3" />
    <circle cx="564.3" cy="259.5" r="3" />
    <circle cx="549.6" cy="259.5" r="3" />
    <circle cx="534.8" cy="259.5" r="3" />
    <circle cx="520" cy="259.5" r="3" />
    <circle cx="505.2" cy="259.5" r="3" />
    <circle cx="490.4" cy="259.5" r="3" />
    <circle cx="475.7" cy="259.5" r="3" />
    <circle cx="460.9" cy="259.5" r="3" />
    <circle cx="446.1" cy="259.5" r="3" />
    <circle cx="431.3" cy="259.5" r="3" />
    <circle cx="416.5" cy="259.5" r="3" />
    <circle cx="401.8" cy="259.5" r="3" />
    <circle cx="387" cy="259.5" r="3" />
    <circle cx="372.2" cy="259.5" r="3" />
    <circle cx="357.4" cy="259.5" r="3" />
    <circle cx="342.6" cy="259.5" r="3" />
    <circle cx="327.9" cy="259.5" r="3" />
    <circle cx="313.1" cy="259.5" r="3" />
    <circle cx="298.3" cy="259.5" r="3" />
    <circle cx="283.5" cy="259.5" r="3" />
    <circle cx="268.7" cy="259.5" r="3" />
    <circle cx="254" cy="259.5" r="3" />
    <circle cx="239.2" cy="259.5" r="3" />
    <circle cx="224.4" cy="259.5" r="3" />
    <circle cx="209.6" cy="259.5" r="3" />
    <circle cx="194.8" cy="259.5" r="3" />
    <circle cx="180.1" cy="259.5" r="3" />
    <circle cx="165.3" cy="259.5" r="3" />
    <circle cx="150.5" cy="259.5" r="3" />
    <circle cx="135.7" cy="259.5" r="3" />
    <circle cx="120.9" cy="259.5" r="3" />
    <circle cx="106.2" cy="259.5" r="3" />
    <circle cx="91.4" cy="259.5" r="3" />
    <circle cx="76.6" cy="259.5" r="3" />
    <circle cx="638.3" cy="244.7" r="3" />
    <circle cx="623.5" cy="244.7" r="3" />
    <circle cx="608.7" cy="244.7" r="3" />
    <circle cx="593.9" cy="244.7" r="3" />
    <circle cx="579.1" cy="244.7" r="3" />
    <circle cx="564.3" cy="244.7" r="3" />
    <circle cx="549.6" cy="244.7" r="3" />
    <circle cx="534.8" cy="244.7" r="3" />
    <circle cx="520" cy="244.7" r="3" />
    <circle cx="505.2" cy="244.7" r="3" />
    <circle cx="490.4" cy="244.7" r="3" />
    <circle cx="475.7" cy="244.7" r="3" />
    <circle cx="460.9" cy="244.7" r="3" />
    <circle cx="446.1" cy="244.7" r="3" />
    <circle cx="431.3" cy="244.7" r="3" />
    <circle cx="416.5" cy="244.7" r="3" />
    <circle cx="401.8" cy="244.7" r="3" />
    <circle cx="387" cy="244.7" r="3" />
    <circle cx="372.2" cy="244.7" r="3" />
    <circle cx="357.4" cy="244.7" r="3" />
    <circle cx="342.6" cy="244.7" r="3" />
    <circle cx="327.9" cy="244.7" r="3" />
    <circle cx="313.1" cy="244.7" r="3" />
    <circle cx="298.3" cy="244.7" r="3" />
    <circle cx="283.5" cy="244.7" r="3" />
    <circle cx="268.7" cy="244.7" r="3" />
    <circle cx="254" cy="244.7" r="3" />
    <circle cx="239.2" cy="244.7" r="3" />
    <circle cx="224.4" cy="244.7" r="3" />
    <circle cx="209.6" cy="244.7" r="3" />
    <circle cx="194.8" cy="244.7" r="3" />
    <circle cx="180.1" cy="244.7" r="3" />
    <circle cx="165.3" cy="244.7" r="3" />
    <circle cx="150.5" cy="244.7" r="3" />
    <circle cx="135.7" cy="244.7" r="3" />
    <circle cx="120.9" cy="244.7" r="3" />
    <circle cx="106.2" cy="244.7" r="3" />
    <circle cx="91.4" cy="244.7" r="3" />
    <circle cx="76.6" cy="244.7" r="3" />
    <circle cx="61.8" cy="244.7" r="3" />
    <circle cx="47" cy="244.7" r="3" />
    <circle cx="638.3" cy="229.9" r="3" />
    <circle cx="623.5" cy="229.9" r="3" />
    <circle cx="608.7" cy="229.9" r="3" />
    <circle cx="593.9" cy="229.9" r="3" />
    <circle cx="579.1" cy="229.9" r="3" />
    <circle cx="564.3" cy="229.9" r="3" />
    <circle cx="549.6" cy="229.9" r="3" />
    <circle cx="534.8" cy="229.9" r="3" />
    <circle cx="520" cy="229.9" r="3" />
    <circle cx="505.2" cy="229.9" r="3" />
    <circle cx="490.4" cy="229.9" r="3" />
    <circle cx="475.7" cy="229.9" r="3" />
    <circle cx="460.9" cy="229.9" r="3" />
    <circle cx="446.1" cy="229.9" r="3" />
    <circle cx="431.3" cy="229.9" r="3" />
    <circle cx="416.5" cy="229.9" r="3" />
    <circle cx="401.8" cy="229.9" r="3" />
    <circle cx="387" cy="229.9" r="3" />
    <circle cx="372.2" cy="229.9" r="3" />
    <circle cx="357.4" cy="229.9" r="3" />
    <circle cx="342.6" cy="229.9" r="3" />
    <circle cx="327.9" cy="229.9" r="3" />
    <circle cx="313.1" cy="229.9" r="3" />
    <circle cx="298.3" cy="229.9" r="3" />
    <circle cx="283.5" cy="229.9" r="3" />
    <circle cx="268.7" cy="229.9" r="3" />
    <circle cx="254" cy="229.9" r="3" />
    <circle cx="239.2" cy="229.9" r="3" />
    <circle cx="224.4" cy="229.9" r="3" />
    <circle cx="209.6" cy="229.9" r="3" />
    <circle cx="194.8" cy="229.9" r="3" />
    <circle cx="180.1" cy="229.9" r="3" />
    <circle cx="165.3" cy="229.9" r="3" />
    <circle cx="150.5" cy="229.9" r="3" />
    <circle cx="135.7" cy="229.9" r="3" />
    <circle cx="120.9" cy="229.9" r="3" />
    <circle cx="106.2" cy="229.9" r="3" />
    <circle cx="91.4" cy="229.9" r="3" />
    <circle cx="76.6" cy="229.9" r="3" />
    <circle cx="61.8" cy="229.9" r="3" />
    <circle cx="47" cy="229.9" r="3" />
    <circle cx="638.3" cy="215.1" r="3" />
    <circle cx="623.5" cy="215.1" r="3" />
    <circle cx="608.7" cy="215.1" r="3" />
    <circle cx="593.9" cy="215.1" r="3" />
    <circle cx="579.1" cy="215.1" r="3" />
    <circle cx="564.3" cy="215.1" r="3" />
    <circle cx="549.6" cy="215.1" r="3" />
    <circle cx="534.8" cy="215.1" r="3" />
    <circle cx="520" cy="215.1" r="3" />
    <circle cx="505.2" cy="215.1" r="3" />
    <circle cx="490.4" cy="215.1" r="3" />
    <circle cx="475.7" cy="215.1" r="3" />
    <circle cx="460.9" cy="215.1" r="3" />
    <circle cx="446.1" cy="215.1" r="3" />
    <circle cx="431.3" cy="215.1" r="3" />
    <circle cx="416.5" cy="215.1" r="3" />
    <circle cx="401.8" cy="215.1" r="3" />
    <circle cx="387" cy="215.1" r="3" />
    <circle cx="372.2" cy="215.1" r="3" />
    <circle cx="357.4" cy="215.1" r="3" />
    <circle cx="342.6" cy="215.1" r="3" />
    <circle cx="327.9" cy="215.1" r="3" />
    <circle cx="313.1" cy="215.1" r="3" />
    <circle cx="298.3" cy="215.1" r="3" />
    <circle cx="283.5" cy="215.1" r="3" />
    <circle cx="268.7" cy="215.1" r="3" />
    <circle cx="254" cy="215.1" r="3" />
    <circle cx="239.2" cy="215.1" r="3" />
    <circle cx="224.4" cy="215.1" r="3" />
    <circle cx="209.6" cy="215.1" r="3" />
    <circle cx="194.8" cy="215.1" r="3" />
    <circle cx="180.1" cy="215.1" r="3" />
    <circle cx="165.3" cy="215.1" r="3" />
    <circle cx="150.5" cy="215.1" r="3" />
    <circle cx="135.7" cy="215.1" r="3" />
    <circle cx="120.9" cy="215.1" r="3" />
    <circle cx="106.2" cy="215.1" r="3" />
    <circle cx="91.4" cy="215.1" r="3" />
    <circle cx="76.6" cy="215.1" r="3" />
    <circle cx="61.8" cy="215.1" r="3" />
    <circle cx="47" cy="215.1" r="3" />
    <circle cx="32.3" cy="215.1" r="3" />
    <circle cx="623.5" cy="200.3" r="3" />
    <circle cx="608.7" cy="200.3" r="3" />
    <circle cx="593.9" cy="200.3" r="3" />
    <circle cx="579.1" cy="200.3" r="3" />
    <circle cx="564.3" cy="200.3" r="3" />
    <circle cx="549.6" cy="200.3" r="3" />
    <circle cx="534.8" cy="200.3" r="3" />
    <circle cx="520" cy="200.3" r="3" />
    <circle cx="505.2" cy="200.3" r="3" />
    <circle cx="490.4" cy="200.3" r="3" />
    <circle cx="475.7" cy="200.3" r="3" />
    <circle cx="460.9" cy="200.3" r="3" />
    <circle cx="446.1" cy="200.3" r="3" />
    <circle cx="431.3" cy="200.3" r="3" />
    <circle cx="416.5" cy="200.3" r="3" />
    <circle cx="401.8" cy="200.3" r="3" />
    <circle cx="387" cy="200.3" r="3" />
    <circle cx="372.2" cy="200.3" r="3" />
    <circle cx="357.4" cy="200.3" r="3" />
    <circle cx="342.6" cy="200.3" r="3" />
    <circle cx="327.9" cy="200.3" r="3" />
    <circle cx="313.1" cy="200.3" r="3" />
    <circle cx="298.3" cy="200.3" r="3" />
    <circle cx="283.5" cy="200.3" r="3" />
    <circle cx="268.7" cy="200.3" r="3" />
    <circle cx="254" cy="200.3" r="3" />
    <circle cx="239.2" cy="200.3" r="3" />
    <circle cx="224.4" cy="200.3" r="3" />
    <circle cx="209.6" cy="200.3" r="3" />
    <circle cx="194.8" cy="200.3" r="3" />
    <circle cx="180.1" cy="200.3" r="3" />
    <circle cx="165.3" cy="200.3" r="3" />
    <circle cx="150.5" cy="200.3" r="3" />
    <circle cx="135.7" cy="200.3" r="3" />
    <circle cx="120.9" cy="200.3" r="3" />
    <circle cx="106.2" cy="200.3" r="3" />
    <circle cx="91.4" cy="200.3" r="3" />
    <circle cx="76.6" cy="200.3" r="3" />
    <circle cx="61.8" cy="200.3" r="3" />
    <circle cx="47" cy="200.3" r="3" />
    <circle cx="32.3" cy="200.3" r="3" />
    <circle cx="623.5" cy="185.6" r="3" />
    <circle cx="608.7" cy="185.6" r="3" />
    <circle cx="593.9" cy="185.6" r="3" />
    <circle cx="579.1" cy="185.6" r="3" />
    <circle cx="564.3" cy="185.6" r="3" />
    <circle cx="549.6" cy="185.6" r="3" />
    <circle cx="534.8" cy="185.6" r="3" />
    <circle cx="520" cy="185.6" r="3" />
    <circle cx="505.2" cy="185.6" r="3" />
    <circle cx="490.4" cy="185.6" r="3" />
    <circle cx="475.7" cy="185.6" r="3" />
    <circle cx="460.9" cy="185.6" r="3" />
    <circle cx="446.1" cy="185.6" r="3" />
    <circle cx="431.3" cy="185.6" r="3" />
    <circle cx="416.5" cy="185.6" r="3" />
    <circle cx="401.8" cy="185.6" r="3" />
    <circle cx="387" cy="185.6" r="3" />
    <circle cx="372.2" cy="185.6" r="3" />
    <circle cx="357.4" cy="185.6" r="3" />
    <circle cx="342.6" cy="185.6" r="3" />
    <circle cx="327.9" cy="185.6" r="3" />
    <circle cx="313.1" cy="185.6" r="3" />
    <circle cx="298.3" cy="185.6" r="3" />
    <circle cx="283.5" cy="185.6" r="3" />
    <circle cx="268.7" cy="185.6" r="3" />
    <circle cx="254" cy="185.6" r="3" />
    <circle cx="239.2" cy="185.6" r="3" />
    <circle cx="224.4" cy="185.6" r="3" />
    <circle cx="209.6" cy="185.6" r="3" />
    <circle cx="194.8" cy="185.6" r="3" />
    <circle cx="180.1" cy="185.6" r="3" />
    <circle cx="165.3" cy="185.6" r="3" />
    <circle cx="150.5" cy="185.6" r="3" />
    <circle cx="135.7" cy="185.6" r="3" />
    <circle cx="120.9" cy="185.6" r="3" />
    <circle cx="106.2" cy="185.6" r="3" />
    <circle cx="91.4" cy="185.6" r="3" />
    <circle cx="76.6" cy="185.6" r="3" />
    <circle cx="61.8" cy="185.6" r="3" />
    <circle cx="47" cy="185.6" r="3" />
    <circle cx="32.3" cy="185.6" r="3" />
    <circle cx="638.3" cy="170.8" r="3" />
    <circle cx="623.5" cy="170.8" r="3" />
    <circle cx="608.7" cy="170.8" r="3" />
    <circle cx="593.9" cy="170.8" r="3" />
    <circle cx="579.1" cy="170.8" r="3" />
    <circle cx="564.3" cy="170.8" r="3" />
    <circle cx="549.6" cy="170.8" r="3" />
    <circle cx="534.8" cy="170.8" r="3" />
    <circle cx="520" cy="170.8" r="3" />
    <circle cx="505.2" cy="170.8" r="3" />
    <circle cx="475.7" cy="170.8" r="3" />
    <circle cx="460.9" cy="170.8" r="3" />
    <circle cx="446.1" cy="170.8" r="3" />
    <circle cx="431.3" cy="170.8" r="3" />
    <circle cx="416.5" cy="170.8" r="3" />
    <circle cx="401.8" cy="170.8" r="3" />
    <circle cx="387" cy="170.8" r="3" />
    <circle cx="372.2" cy="170.8" r="3" />
    <circle cx="357.4" cy="170.8" r="3" />
    <circle cx="342.6" cy="170.8" r="3" />
    <circle cx="327.9" cy="170.8" r="3" />
    <circle cx="313.1" cy="170.8" r="3" />
    <circle cx="298.3" cy="170.8" r="3" />
    <circle cx="283.5" cy="170.8" r="3" />
    <circle cx="268.7" cy="170.8" r="3" />
    <circle cx="254" cy="170.8" r="3" />
    <circle cx="239.2" cy="170.8" r="3" />
    <circle cx="224.4" cy="170.8" r="3" />
    <circle cx="209.6" cy="170.8" r="3" />
    <circle cx="194.8" cy="170.8" r="3" />
    <circle cx="180.1" cy="170.8" r="3" />
    <circle cx="165.3" cy="170.8" r="3" />
    <circle cx="150.5" cy="170.8" r="3" />
    <circle cx="135.7" cy="170.8" r="3" />
    <circle cx="120.9" cy="170.8" r="3" />
    <circle cx="106.2" cy="170.8" r="3" />
    <circle cx="91.4" cy="170.8" r="3" />
    <circle cx="76.6" cy="170.8" r="3" />
    <circle cx="61.8" cy="170.8" r="3" />
    <circle cx="47" cy="170.8" r="3" />
    <circle cx="32.3" cy="170.8" r="3" />
    <circle cx="653" cy="156" r="3" />
    <circle cx="638.3" cy="156" r="3" />
    <circle cx="623.5" cy="156" r="3" />
    <circle cx="608.7" cy="156" r="3" />
    <circle cx="593.9" cy="156" r="3" />
    <circle cx="579.1" cy="156" r="3" />
    <circle cx="534.8" cy="156" r="3" />
    <circle cx="520" cy="156" r="3" />
    <circle cx="505.2" cy="156" r="3" />
    <circle cx="475.7" cy="156" r="3" />
    <circle cx="460.9" cy="156" r="3" />
    <circle cx="446.1" cy="156" r="3" />
    <circle cx="431.3" cy="156" r="3" />
    <circle cx="416.5" cy="156" r="3" />
    <circle cx="401.8" cy="156" r="3" />
    <circle cx="387" cy="156" r="3" />
    <circle cx="372.2" cy="156" r="3" />
    <circle cx="357.4" cy="156" r="3" />
    <circle cx="342.6" cy="156" r="3" />
    <circle cx="327.9" cy="156" r="3" />
    <circle cx="313.1" cy="156" r="3" />
    <circle cx="298.3" cy="156" r="3" />
    <circle cx="283.5" cy="156" r="3" />
    <circle cx="268.7" cy="156" r="3" />
    <circle cx="254" cy="156" r="3" />
    <circle cx="239.2" cy="156" r="3" />
    <circle cx="224.4" cy="156" r="3" />
    <circle cx="209.6" cy="156" r="3" />
    <circle cx="194.8" cy="156" r="3" />
    <circle cx="180.1" cy="156" r="3" />
    <circle cx="165.3" cy="156" r="3" />
    <circle cx="150.5" cy="156" r="3" />
    <circle cx="135.7" cy="156" r="3" />
    <circle cx="120.9" cy="156" r="3" />
    <circle cx="106.2" cy="156" r="3" />
    <circle cx="91.4" cy="156" r="3" />
    <circle cx="76.6" cy="156" r="3" />
    <circle cx="61.8" cy="156" r="3" />
    <circle cx="47" cy="156" r="3" />
    <circle cx="32.3" cy="156" r="3" />
    <circle cx="653" cy="141.2" r="3" />
    <circle cx="638.3" cy="141.2" r="3" />
    <circle cx="623.5" cy="141.2" r="3" />
    <circle cx="608.7" cy="141.2" r="3" />
    <circle cx="534.8" cy="141.2" r="3" />
    <circle cx="520" cy="141.2" r="3" />
    <circle cx="475.7" cy="141.2" r="3" />
    <circle cx="460.9" cy="141.2" r="3" />
    <circle cx="446.1" cy="141.2" r="3" />
    <circle cx="431.3" cy="141.2" r="3" />
    <circle cx="416.5" cy="141.2" r="3" />
    <circle cx="401.8" cy="141.2" r="3" />
    <circle cx="387" cy="141.2" r="3" />
    <circle cx="372.2" cy="141.2" r="3" />
    <circle cx="357.4" cy="141.2" r="3" />
    <circle cx="342.6" cy="141.2" r="3" />
    <circle cx="327.9" cy="141.2" r="3" />
    <circle cx="313.1" cy="141.2" r="3" />
    <circle cx="298.3" cy="141.2" r="3" />
    <circle cx="283.5" cy="141.2" r="3" />
    <circle cx="268.7" cy="141.2" r="3" />
    <circle cx="254" cy="141.2" r="3" />
    <circle cx="239.2" cy="141.2" r="3" />
    <circle cx="224.4" cy="141.2" r="3" />
    <circle cx="209.6" cy="141.2" r="3" />
    <circle cx="194.8" cy="141.2" r="3" />
    <circle cx="180.1" cy="141.2" r="3" />
    <circle cx="165.3" cy="141.2" r="3" />
    <circle cx="150.5" cy="141.2" r="3" />
    <circle cx="135.7" cy="141.2" r="3" />
    <circle cx="120.9" cy="141.2" r="3" />
    <circle cx="106.2" cy="141.2" r="3" />
    <circle cx="91.4" cy="141.2" r="3" />
    <circle cx="76.6" cy="141.2" r="3" />
    <circle cx="61.8" cy="141.2" r="3" />
    <circle cx="47" cy="141.2" r="3" />
    <circle cx="32.3" cy="141.2" r="3" />
    <circle cx="667.8" cy="126.4" r="3" />
    <circle cx="653" cy="126.4" r="3" />
    <circle cx="638.3" cy="126.4" r="3" />
    <circle cx="623.5" cy="126.4" r="3" />
    <circle cx="520" cy="126.4" r="3" />
    <circle cx="475.7" cy="126.4" r="3" />
    <circle cx="460.9" cy="126.4" r="3" />
    <circle cx="446.1" cy="126.4" r="3" />
    <circle cx="431.3" cy="126.4" r="3" />
    <circle cx="416.5" cy="126.4" r="3" />
    <circle cx="401.8" cy="126.4" r="3" />
    <circle cx="387" cy="126.4" r="3" />
    <circle cx="372.2" cy="126.4" r="3" />
    <circle cx="357.4" cy="126.4" r="3" />
    <circle cx="342.6" cy="126.4" r="3" />
    <circle cx="327.9" cy="126.4" r="3" />
    <circle cx="313.1" cy="126.4" r="3" />
    <circle cx="298.3" cy="126.4" r="3" />
    <circle cx="283.5" cy="126.4" r="3" />
    <circle cx="268.7" cy="126.4" r="3" />
    <circle cx="254" cy="126.4" r="3" />
    <circle cx="239.2" cy="126.4" r="3" />
    <circle cx="224.4" cy="126.4" r="3" />
    <circle cx="209.6" cy="126.4" r="3" />
    <circle cx="194.8" cy="126.4" r="3" />
    <circle cx="180.1" cy="126.4" r="3" />
    <circle cx="165.3" cy="126.4" r="3" />
    <circle cx="150.5" cy="126.4" r="3" />
    <circle cx="135.7" cy="126.4" r="3" />
    <circle cx="120.9" cy="126.4" r="3" />
    <circle cx="106.2" cy="126.4" r="3" />
    <circle cx="91.4" cy="126.4" r="3" />
    <circle cx="76.6" cy="126.4" r="3" />
    <circle cx="61.8" cy="126.4" r="3" />
    <circle cx="47" cy="126.4" r="3" />
    <circle cx="32.3" cy="126.4" r="3" />
    <circle cx="682.6" cy="111.7" r="3" />
    <circle cx="667.8" cy="111.7" r="3" />
    <circle cx="653" cy="111.7" r="3" />
    <circle cx="638.3" cy="111.7" r="3" />
    <circle cx="520" cy="111.7" r="3" />
    <circle cx="460.9" cy="111.7" r="3" />
    <circle cx="446.1" cy="111.7" r="3" />
    <circle cx="431.3" cy="111.7" r="3" />
    <circle cx="416.5" cy="111.7" r="3" />
    <circle cx="401.8" cy="111.7" r="3" />
    <circle cx="387" cy="111.7" r="3" />
    <circle cx="372.2" cy="111.7" r="3" />
    <circle cx="357.4" cy="111.7" r="3" />
    <circle cx="342.6" cy="111.7" r="3" />
    <circle cx="327.9" cy="111.7" r="3" />
    <circle cx="313.1" cy="111.7" r="3" />
    <circle cx="298.3" cy="111.7" r="3" />
    <circle cx="283.5" cy="111.7" r="3" />
    <circle cx="268.7" cy="111.7" r="3" />
    <circle cx="254" cy="111.7" r="3" />
    <circle cx="239.2" cy="111.7" r="3" />
    <circle cx="224.4" cy="111.7" r="3" />
    <circle cx="209.6" cy="111.7" r="3" />
    <circle cx="194.8" cy="111.7" r="3" />
    <circle cx="180.1" cy="111.7" r="3" />
    <circle cx="165.3" cy="111.7" r="3" />
    <circle cx="150.5" cy="111.7" r="3" />
    <circle cx="135.7" cy="111.7" r="3" />
    <circle cx="120.9" cy="111.7" r="3" />
    <circle cx="106.2" cy="111.7" r="3" />
    <circle cx="91.4" cy="111.7" r="3" />
    <circle cx="76.6" cy="111.7" r="3" />
    <circle cx="61.8" cy="111.7" r="3" />
    <circle cx="47" cy="111.7" r="3" />
    <circle cx="32.3" cy="111.7" r="3" />
    <circle cx="682.6" cy="96.9" r="3" />
    <circle cx="667.8" cy="96.9" r="3" />
    <circle cx="653" cy="96.9" r="3" />
    <circle cx="638.3" cy="96.9" r="3" />
    <circle cx="520" cy="96.9" r="3" />
    <circle cx="475.7" cy="96.9" r="3" />
    <circle cx="460.9" cy="96.9" r="3" />
    <circle cx="446.1" cy="96.9" r="3" />
    <circle cx="431.3" cy="96.9" r="3" />
    <circle cx="416.5" cy="96.9" r="3" />
    <circle cx="401.8" cy="96.9" r="3" />
    <circle cx="387" cy="96.9" r="3" />
    <circle cx="372.2" cy="96.9" r="3" />
    <circle cx="357.4" cy="96.9" r="3" />
    <circle cx="342.6" cy="96.9" r="3" />
    <circle cx="327.9" cy="96.9" r="3" />
    <circle cx="313.1" cy="96.9" r="3" />
    <circle cx="298.3" cy="96.9" r="3" />
    <circle cx="283.5" cy="96.9" r="3" />
    <circle cx="268.7" cy="96.9" r="3" />
    <circle cx="254" cy="96.9" r="3" />
    <circle cx="239.2" cy="96.9" r="3" />
    <circle cx="224.4" cy="96.9" r="3" />
    <circle cx="209.6" cy="96.9" r="3" />
    <circle cx="194.8" cy="96.9" r="3" />
    <circle cx="180.1" cy="96.9" r="3" />
    <circle cx="165.3" cy="96.9" r="3" />
    <circle cx="150.5" cy="96.9" r="3" />
    <circle cx="135.7" cy="96.9" r="3" />
    <circle cx="120.9" cy="96.9" r="3" />
    <circle cx="106.2" cy="96.9" r="3" />
    <circle cx="91.4" cy="96.9" r="3" />
    <circle cx="76.6" cy="96.9" r="3" />
    <circle cx="61.8" cy="96.9" r="3" />
    <circle cx="47" cy="96.9" r="3" />
    <circle cx="32.3" cy="96.9" r="3" />
    <circle cx="697.4" cy="82.1" r="3" />
    <circle cx="682.6" cy="82.1" r="3" />
    <circle cx="667.8" cy="82.1" r="3" />
    <circle cx="653" cy="82.1" r="3" />
    <circle cx="416.5" cy="82.1" r="3" />
    <circle cx="401.8" cy="82.1" r="3" />
    <circle cx="387" cy="82.1" r="3" />
    <circle cx="372.2" cy="82.1" r="3" />
    <circle cx="357.4" cy="82.1" r="3" />
    <circle cx="342.6" cy="82.1" r="3" />
    <circle cx="327.9" cy="82.1" r="3" />
    <circle cx="313.1" cy="82.1" r="3" />
    <circle cx="298.3" cy="82.1" r="3" />
    <circle cx="283.5" cy="82.1" r="3" />
    <circle cx="268.7" cy="82.1" r="3" />
    <circle cx="254" cy="82.1" r="3" />
    <circle cx="239.2" cy="82.1" r="3" />
    <circle cx="224.4" cy="82.1" r="3" />
    <circle cx="209.6" cy="82.1" r="3" />
    <circle cx="194.8" cy="82.1" r="3" />
    <circle cx="180.1" cy="82.1" r="3" />
    <circle cx="165.3" cy="82.1" r="3" />
    <circle cx="150.5" cy="82.1" r="3" />
    <circle cx="135.7" cy="82.1" r="3" />
    <circle cx="120.9" cy="82.1" r="3" />
    <circle cx="106.2" cy="82.1" r="3" />
    <circle cx="91.4" cy="82.1" r="3" />
    <circle cx="76.6" cy="82.1" r="3" />
    <circle cx="61.8" cy="82.1" r="3" />
    <circle cx="47" cy="82.1" r="3" />
    <circle cx="697.4" cy="67.3" r="3" />
    <circle cx="682.6" cy="67.3" r="3" />
    <circle cx="431.3" cy="67.3" r="3" />
    <circle cx="416.5" cy="67.3" r="3" />
    <circle cx="401.8" cy="67.3" r="3" />
    <circle cx="387" cy="67.3" r="3" />
    <circle cx="372.2" cy="67.3" r="3" />
    <circle cx="357.4" cy="67.3" r="3" />
    <circle cx="342.6" cy="67.3" r="3" />
    <circle cx="327.9" cy="67.3" r="3" />
    <circle cx="313.1" cy="67.3" r="3" />
    <circle cx="298.3" cy="67.3" r="3" />
    <circle cx="283.5" cy="67.3" r="3" />
    <circle cx="268.7" cy="67.3" r="3" />
    <circle cx="254" cy="67.3" r="3" />
    <circle cx="239.2" cy="67.3" r="3" />
    <circle cx="224.4" cy="67.3" r="3" />
    <circle cx="209.6" cy="67.3" r="3" />
    <circle cx="194.8" cy="67.3" r="3" />
    <circle cx="180.1" cy="67.3" r="3" />
    <circle cx="165.3" cy="67.3" r="3" />
    <circle cx="150.5" cy="67.3" r="3" />
    <circle cx="135.7" cy="67.3" r="3" />
    <circle cx="120.9" cy="67.3" r="3" />
    <circle cx="106.2" cy="67.3" r="3" />
    <circle cx="91.4" cy="67.3" r="3" />
    <circle cx="76.6" cy="67.3" r="3" />
    <circle cx="61.8" cy="67.3" r="3" />
    <circle cx="47" cy="67.3" r="3" />
    <circle cx="712.2" cy="52.5" r="3" />
    <circle cx="697.4" cy="52.5" r="3" />
    <circle cx="387" cy="52.5" r="3" />
    <circle cx="372.2" cy="52.5" r="3" />
    <circle cx="357.4" cy="52.5" r="3" />
    <circle cx="342.6" cy="52.5" r="3" />
    <circle cx="327.9" cy="52.5" r="3" />
    <circle cx="313.1" cy="52.5" r="3" />
    <circle cx="298.3" cy="52.5" r="3" />
    <circle cx="283.5" cy="52.5" r="3" />
    <circle cx="268.7" cy="52.5" r="3" />
    <circle cx="254" cy="52.5" r="3" />
    <circle cx="239.2" cy="52.5" r="3" />
    <circle cx="224.4" cy="52.5" r="3" />
    <circle cx="209.6" cy="52.5" r="3" />
    <circle cx="194.8" cy="52.5" r="3" />
    <circle cx="180.1" cy="52.5" r="3" />
    <circle cx="165.3" cy="52.5" r="3" />
    <circle cx="150.5" cy="52.5" r="3" />
    <circle cx="135.7" cy="52.5" r="3" />
    <circle cx="120.9" cy="52.5" r="3" />
    <circle cx="106.2" cy="52.5" r="3" />
    <circle cx="91.4" cy="52.5" r="3" />
    <circle cx="76.6" cy="52.5" r="3" />
    <circle cx="61.8" cy="52.5" r="3" />
    <circle cx="697.4" cy="37.8" r="3" />
    <circle cx="239.2" cy="37.8" r="3" />
    <circle cx="224.4" cy="37.8" r="3" />
    <circle cx="209.6" cy="37.8" r="3" />
    <circle cx="194.8" cy="37.8" r="3" />
    <circle cx="180.1" cy="37.8" r="3" />
    <circle cx="165.3" cy="37.8" r="3" />
    <circle cx="150.5" cy="37.8" r="3" />
    <circle cx="135.7" cy="37.8" r="3" />
    <circle cx="120.9" cy="37.8" r="3" />
    <circle cx="106.2" cy="37.8" r="3" />
    <circle cx="91.4" cy="37.8" r="3" />
    <circle cx="76.6" cy="37.8" r="3" />
    <circle cx="61.8" cy="37.8" r="3" />
    <circle cx="47" cy="37.8" r="3" />
    <circle cx="120.9" cy="23" r="3" />
    <circle cx="106.2" cy="23" r="3" />
    <circle cx="91.4" cy="23" r="3" />
    <circle cx="19" cy="156" r="3" />
</g>
<g class="cities">
	<circle class="city" id="boston" onmouseenter="citySelect('boston')" onmouseleave="cityUnSelect('boston')" cx="667.8" cy="126.4" r="5.9"/>
	<circle class="city" id="st-louis" onmouseenter="citySelect('st-louis')" onmouseleave="cityUnSelect('st-louis')" cx="401.4" cy="244.7" r="5.9"/>
	<circle class="city" id="kansas" onmouseenter="citySelect('kansas')" onmouseleave="cityUnSelect('kansas')" cx="357.4" cy="229.9" r="5.9"/>
</g>
</svg>